<?xml version="1.0" standalone="no"?>
<!DOCTYPE svg PUBLIC "-//W3C//DTD SVG 20010904//EN"
 "http://www.w3.org/TR/2001/REC-SVG-20010904/DTD/svg10.dtd">
<svg version="1.0" xmlns="http://www.w3.org/2000/svg"
 width="700.000000pt" height="700.000000pt" viewBox="0 0 700.000000 700.000000"
 preserveAspectRatio="xMidYMid meet">
<metadata>
Created by potrace 1.14, written by Peter Selinger 2001-2017
</metadata>
<g transform="translate(0.000000,700.000000) scale(0.100000,-0.100000)"
fill="#000000" stroke="none">
<path d="M2645 6803 c-341 -47 -612 -282 -707 -610 -19 -64 -23 -102 -22 -213
0 -115 4 -150 28 -240 46 -171 90 -246 295 -500 216 -269 299 -387 375 -538
155 -308 191 -581 150 -1133 -18 -243 -14 -363 16 -497 80 -363 389 -619 770
-639 245 -13 473 77 641 253 212 221 286 513 205 811 -46 167 -91 241 -325
533 -185 230 -280 369 -352 513 -146 289 -181 547 -144 1036 21 270 17 431
-14 576 -72 334 -329 581 -667 640 -82 14 -181 17 -249 8z"/>
<path d="M5830 5446 c-407 -86 -717 -408 -780 -810 -17 -110 -13 -315 10 -466
11 -74 35 -227 52 -340 30 -191 32 -223 32 -465 1 -291 -9 -360 -80 -580 -70
-215 -165 -392 -404 -750 -232 -348 -279 -439 -318 -617 -43 -194 -38 -364 15
-533 162 -514 718 -808 1226 -649 324 102 571 356 656 675 52 194 49 357 -14
747 -57 354 -68 481 -62 702 8 282 52 473 167 717 64 136 121 229 325 533 163
243 253 404 289 515 44 139 65 366 47 496 -33 221 -125 406 -280 559 -121 120
-250 196 -417 246 -76 23 -111 27 -244 30 -104 2 -176 -1 -220 -10z"/>
<path d="M710 4741 c-167 -37 -307 -110 -427 -225 -201 -190 -296 -428 -280
-700 23 -393 297 -714 693 -813 102 -25 304 -23 409 5 181 48 372 174 482 317
206 268 245 619 102 924 -110 235 -305 400 -565 476 -122 36 -293 43 -414 16z"/>
</g>
</svg>
